<svg xmlns="http://www.w3.org/2000/svg" viewBox="0 0 148.9 165.63">
  <g>
    <path d="M99.87,124.8l-25.42,14L49,124.8v29.31l15.23,8.8a20.41,20.41,0,0,0,20.37,0l15.23-8.8Z" style="fill: #5bc5f2"/>
    <path d="M138.72,34,84.64,2.73a20.36,20.36,0,0,0-20.37,0L10.19,34A20.36,20.36,0,0,0,0,51.59V114a20.36,20.36,0,0,0,10.19,17.64l9.41,5.44V55a4.39,4.39,0,0,1,6.59-3.8l48.3,27.21,48.23-27.21A4.39,4.39,0,0,1,129.3,55v82.08l9.42-5.44A20.37,20.37,0,0,0,148.9,114V51.59A20.37,20.37,0,0,0,138.72,34Z" style="fill: #5bc5f2"/>
  </g>
</svg>
